<svg width="300" height="400" viewBox="0 0 300 400" xmlns="http://www.w3.org/2000/svg">
  <defs>
    <!-- Tech Gradient -->
    <linearGradient id="techGrad" x1="0%" y1="0%" x2="100%" y2="100%">
      <stop offset="0%" style="stop-color:#667eea;stop-opacity:1" />
      <stop offset="100%" style="stop-color:#764ba2;stop-opacity:1" />
    </linearGradient>
    <linearGradient id="techAccent" x1="0%" y1="0%" x2="100%" y2="0%">
      <stop offset="0%" style="stop-color:#4c6ef5;stop-opacity:1" />
      <stop offset="100%" style="stop-color:#9775fa;stop-opacity:1" />
    </linearGradient>
    <!-- Dark Pattern -->
    <pattern id="grid" width="20" height="20" patternUnits="userSpaceOnUse">
      <path d="M 20 0 L 0 0 0 20" fill="none" stroke="rgba(255,255,255,0.05)" stroke-width="1"/>
    </pattern>
  </defs>
  
  <!-- Background -->
  <rect width="300" height="400" fill="#1a1b23"/>
  <rect width="300" height="400" fill="url(#grid)"/>
  
  <!-- Header Section -->
  <rect width="300" height="130" fill="url(#techGrad)"/>
  
  <!-- Tech Elements -->
  <rect x="20" y="15" width="12" height="12" fill="rgba(255,255,255,0.2)" rx="2"/>
  <rect x="35" y="15" width="12" height="12" fill="rgba(255,255,255,0.15)" rx="2"/>
  <rect x="250" y="20" width="25" height="2" fill="rgba(255,255,255,0.3)" rx="1"/>
  <rect x="250" y="25" width="20" height="2" fill="rgba(255,255,255,0.2)" rx="1"/>
  <rect x="250" y="30" width="30" height="2" fill="rgba(255,255,255,0.25)" rx="1"/>
  
  <!-- Profile Avatar with Tech Border -->
  <circle cx="150" cy="55" r="30" fill="rgba(255,255,255,0.1)" stroke="url(#techAccent)" stroke-width="2"/>
  <circle cx="150" cy="55" r="22" fill="url(#techGrad)"/>
  <text x="150" y="62" text-anchor="middle" font-family="Arial, sans-serif" font-size="14" font-weight="bold" fill="#ffffff">MT</text>
  
  <!-- Name -->
  <text x="150" y="95" text-anchor="middle" font-family="Arial, sans-serif" font-size="16" font-weight="bold" fill="#ffffff">Mike Tech</text>
  
  <!-- Title -->
  <text x="150" y="112" text-anchor="middle" font-family="Arial, sans-serif" font-size="12" fill="rgba(255,255,255,0.9)">Senior Software Architect</text>
  
  <!-- PRO Badge -->
  <rect x="20" y="145" width="35" height="15" fill="url(#techAccent)" rx="7"/>
  <text x="37.5" y="155" text-anchor="middle" font-family="Arial, sans-serif" font-size="8" font-weight="bold" fill="#ffffff">PRO</text>
  
  <!-- Video Intro Section -->
  <rect x="20" y="170" width="260" height="40" fill="#2d2d3a" stroke="#667eea" stroke-width="1" rx="6"/>
  <text x="30" y="185" font-family="Arial, sans-serif" font-size="10" font-weight="bold" fill="#ffffff">▶ Video Introduction</text>
  <text x="30" y="198" font-family="Arial, sans-serif" font-size="8" fill="#a8a8b2">Watch my 2-minute tech overview</text>
  
  <!-- Play Button -->
  <circle cx="240" cy="190" r="12" fill="url(#techGrad)"/>
  <polygon points="235,190 245,184 245,196" fill="#ffffff"/>
  
  <!-- Tech Stack Section -->
  <text x="20" y="235" font-family="Arial, sans-serif" font-size="12" font-weight="bold" fill="#ffffff">Tech Stack</text>
  
  <!-- Tech Icons/Badges -->
  <rect x="20" y="245" width="40" height="20" fill="#61dafb" rx="4"/>
  <text x="40" y="257" text-anchor="middle" font-family="Arial, sans-serif" font-size="8" font-weight="bold" fill="#000000">React</text>
  
  <rect x="70" y="245" width="45" height="20" fill="#68d391" rx="4"/>
  <text x="92.5" y="257" text-anchor="middle" font-family="Arial, sans-serif" font-size="8" font-weight="bold" fill="#000000">Node.js</text>
  
  <rect x="125" y="245" width="50" height="20" fill="#f6e05e" rx="4"/>
  <text x="150" y="257" text-anchor="middle" font-family="Arial, sans-serif" font-size="8" font-weight="bold" fill="#000000">Python</text>
  
  <rect x="185" y="245" width="35" height="20" fill="#fc8181" rx="4"/>
  <text x="202.5" y="257" text-anchor="middle" font-family="Arial, sans-serif" font-size="8" font-weight="bold" fill="#000000">AWS</text>
  
  <rect x="230" y="245" width="50" height="20" fill="#a78bfa" rx="4"/>
  <text x="255" y="257" text-anchor="middle" font-family="Arial, sans-serif" font-size="8" font-weight="bold" fill="#000000">Docker</text>
  
  <!-- Project Gallery -->
  <text x="20" y="290" font-family="Arial, sans-serif" font-size="12" font-weight="bold" fill="#ffffff">Recent Projects</text>
  
  <!-- Project Cards -->
  <rect x="20" y="300" width="80" height="50" fill="#2d2d3a" stroke="#667eea" stroke-width="1" rx="4"/>
  <rect x="25" y="305" width="70" height="3" fill="#667eea" rx="1"/>
  <rect x="25" y="315" width="50" height="2" fill="#a8a8b2" rx="1"/>
  <rect x="25" y="320" width="60" height="2" fill="#a8a8b2" rx="1"/>
  <text x="30" y="340" font-family="Arial, sans-serif" font-size="8" fill="#ffffff">E-commerce App</text>
  
  <rect x="110" y="300" width="80" height="50" fill="#2d2d3a" stroke="#9775fa" stroke-width="1" rx="4"/>
  <rect x="115" y="305" width="70" height="3" fill="#9775fa" rx="1"/>
  <rect x="115" y="315" width="55" height="2" fill="#a8a8b2" rx="1"/>
  <rect x="115" y="320" width="65" height="2" fill="#a8a8b2" rx="1"/>
  <text x="120" y="340" font-family="Arial, sans-serif" font-size="8" fill="#ffffff">AI Dashboard</text>
  
  <rect x="200" y="300" width="80" height="50" fill="#2d2d3a" stroke="#667eea" stroke-width="1" rx="4"/>
  <rect x="205" y="305" width="70" height="3" fill="#667eea" rx="1"/>
  <rect x="205" y="315" width="45" height="2" fill="#a8a8b2" rx="1"/>
  <rect x="205" y="320" width="55" height="2" fill="#a8a8b2" rx="1"/>
  <text x="210" y="340" font-family="Arial, sans-serif" font-size="8" fill="#ffffff">API Gateway</text>
  
  <!-- Analytics Section -->
  <rect x="20" y="365" width="260" height="20" fill="rgba(102,126,234,0.1)" stroke="#667eea" stroke-width="1" rx="4"/>
  <text x="30" y="377" font-family="Arial, sans-serif" font-size="9" font-weight="bold" fill="#ffffff">📊 Performance Analytics</text>
  <text x="180" y="377" font-family="Arial, sans-serif" font-size="8" fill="#a8a8b2">99.9% uptime</text>
  <text x="230" y="377" font-family="Arial, sans-serif" font-size="8" fill="#a8a8b2">50M+ requests</text>
  
  <!-- Footer -->
  <rect x="0" y="390" width="300" height="10" fill="url(#techGrad)"/>
</svg>